# xmcd
#
# Track frame offsets: 
#        150
#        35055
#        61932
#        92850
#        115207
#        141100
#        164215
#        188207
#        224485
#        258887
#
# Disc length: 3903 seconds
#
# Revision: 3
# Processed by: cddbd v1.5.2PL0 Copyright (c) Steve Scherf et al.
# Submitted via: ExactAudioCopy v1.0b4
#
DISCID=990f3d0a
DTITLE=Howlin' Wolf - Live and Cookin' (At Alice's Revisited)
DYEAR=1995
DGENRE=Blues
TTITLE0=When I Laid Down I Was Troubled
TTITLE1=I Didn't Know
TTITLE2=Mean Mistreater
TTITLE3=I Had A Dream
TTITLE4=Call Me The Wolf
TTITLE5=Don't Laugh At Me
TTITLE6=Just Passing By
TTITLE7=Sitting On Top Of The World
TTITLE8=The Big House
TTITLE9=Mr. Airplane Man
EXTD=YEAR: 2003
EXTT0=
EXTT1=
EXTT2=
EXTT3=
EXTT4=
EXTT5=
EXTT6=
EXTT7=
EXTT8=
EXTT9=Previously unreleased bonus track
PLAYORDER=
